<svg width="552" height="174" viewBox="0 0 552 174" fill="none" xmlns="http://www.w3.org/2000/svg">
<path d="M61.7244 62H48.4267L38.8267 30.3556L28.8711 62H15.5733L0.213333 12.2222H13.0844L23.04 45.36L33.4222 12.2222H44.8711L54.9689 45.7156L65.28 12.2222H77.0844L61.7244 62ZM113.24 46.3556H86.3603C86.8818 48.3467 87.9721 49.9111 89.6314 51.0489C91.2906 52.1393 93.3766 52.6844 95.8892 52.6844C97.6906 52.6844 99.2551 52.4237 100.583 51.9022C101.957 51.3333 103.285 50.4563 104.565 49.2711L110.823 56.4533C107.362 60.5778 102.265 62.64 95.5336 62.64C91.3144 62.64 87.5929 61.7867 84.3692 60.08C81.1455 58.3733 78.6566 56.0267 76.9025 53.04C75.1484 50.0059 74.2714 46.5926 74.2714 42.8C74.2714 39.0074 75.1247 35.5941 76.8314 32.56C78.5855 29.5259 80.9795 27.1556 84.0136 25.4489C87.0477 23.7422 90.4373 22.8889 94.1825 22.8889C97.8329 22.8889 101.104 23.6948 103.996 25.3067C106.935 26.9185 109.234 29.2652 110.894 32.3467C112.6 35.3807 113.454 38.9363 113.454 43.0133L113.24 46.3556ZM94.2536 32.2756C92.1203 32.2756 90.3188 32.8919 88.8492 34.1244C87.4269 35.3096 86.5262 36.9926 86.1469 39.1733H102.218C101.839 37.04 100.938 35.357 99.5158 34.1244C98.141 32.8919 96.3869 32.2756 94.2536 32.2756ZM155.132 12.2222C160.3 12.2222 164.851 13.2415 168.786 15.28C172.768 17.3185 175.849 20.2341 178.03 24.0267C180.258 27.7719 181.372 32.1333 181.372 37.1111C181.372 42.0889 180.258 46.4741 178.03 50.2667C175.849 54.0119 172.768 56.9037 168.786 58.9422C164.851 60.9807 160.3 62 155.132 62H133.159V12.2222H155.132ZM154.492 51.4044C158.854 51.4044 162.338 50.1481 164.946 47.6356C167.553 45.0756 168.857 41.5674 168.857 37.1111C168.857 32.6548 167.553 29.1704 164.946 26.6578C162.338 24.0978 158.854 22.8178 154.492 22.8178H145.532V51.4044H154.492ZM222.99 46.3556H196.11C196.632 48.3467 197.722 49.9111 199.381 51.0489C201.041 52.1393 203.127 52.6844 205.639 52.6844C207.441 52.6844 209.005 52.4237 210.333 51.9022C211.707 51.3333 213.035 50.4563 214.315 49.2711L220.573 56.4533C217.112 60.5778 212.015 62.64 205.284 62.64C201.064 62.64 197.343 61.7867 194.119 60.08C190.895 58.3733 188.407 56.0267 186.653 53.04C184.898 50.0059 184.021 46.5926 184.021 42.8C184.021 39.0074 184.875 35.5941 186.581 32.56C188.335 29.5259 190.73 27.1556 193.764 25.4489C196.798 23.7422 200.187 22.8889 203.933 22.8889C207.583 22.8889 210.854 23.6948 213.746 25.3067C216.685 26.9185 218.984 29.2652 220.644 32.3467C222.35 35.3807 223.204 38.9363 223.204 43.0133L222.99 46.3556ZM204.004 32.2756C201.87 32.2756 200.069 32.8919 198.599 34.1244C197.177 35.3096 196.276 36.9926 195.897 39.1733H211.968C211.589 37.04 210.688 35.357 209.266 34.1244C207.891 32.8919 206.137 32.2756 204.004 32.2756ZM241.006 62.64C238.02 62.64 235.057 62.2607 232.118 61.5022C229.178 60.7437 226.808 59.7956 225.006 58.6578L228.846 49.6978C230.553 50.7881 232.544 51.6652 234.82 52.3289C237.143 52.9452 239.371 53.2533 241.504 53.2533C245.439 53.2533 247.406 52.3052 247.406 50.4089C247.406 49.5081 246.861 48.8919 245.771 48.56C244.728 48.1807 243.021 47.8252 240.651 47.4933C237.617 47.0667 235.104 46.5452 233.113 45.9289C231.122 45.3126 229.392 44.1985 227.922 42.5867C226.452 40.9748 225.717 38.6756 225.717 35.6889C225.717 33.1763 226.429 30.9481 227.851 29.0044C229.273 27.0607 231.288 25.5674 233.895 24.5244C236.55 23.4341 239.679 22.8889 243.282 22.8889C245.842 22.8889 248.426 23.197 251.033 23.8133C253.64 24.3822 255.845 25.1644 257.646 26.16L253.664 35.0489C250.535 33.2 247.075 32.2756 243.282 32.2756C241.196 32.2756 239.632 32.56 238.589 33.1289C237.593 33.6504 237.095 34.3378 237.095 35.1911C237.095 36.1393 237.64 36.8267 238.731 37.2533C239.869 37.6326 241.67 38.0119 244.135 38.3911C247.169 38.8652 249.658 39.4104 251.602 40.0267C253.546 40.5956 255.229 41.6859 256.651 43.2978C258.12 44.9096 258.855 47.1615 258.855 50.0533C258.855 52.5185 258.144 54.6993 256.722 56.5956C255.3 58.4919 253.238 59.9852 250.535 61.0756C247.833 62.1185 244.657 62.64 241.006 62.64ZM269.305 18.8356C267.124 18.8356 265.346 18.1956 263.971 16.9156C262.644 15.6356 261.98 14.0237 261.98 12.08C261.98 10.1363 262.644 8.52444 263.971 7.24444C265.346 5.91703 267.124 5.25333 269.305 5.25333C271.438 5.25333 273.168 5.86963 274.496 7.10222C275.871 8.33481 276.558 9.89926 276.558 11.7956C276.558 13.8815 275.894 15.5881 274.567 16.9156C273.24 18.1956 271.485 18.8356 269.305 18.8356ZM275.207 23.5289V62H263.26V23.5289H275.207ZM321.311 55.1733C321.311 62.3319 319.51 67.6652 315.907 71.1733C312.304 74.6815 307.089 76.4356 300.262 76.4356C296.707 76.4356 293.317 75.9852 290.093 75.0844C286.917 74.2311 284.262 72.9748 282.129 71.3156L286.751 62.3556C288.316 63.5881 290.236 64.5837 292.511 65.3422C294.834 66.1007 297.11 66.48 299.338 66.48C302.799 66.48 305.335 65.6504 306.947 63.9911C308.559 62.3793 309.364 59.9615 309.364 56.7378V56.0978C306.71 58.7526 303.107 60.08 298.556 60.08C295.142 60.08 292.037 59.3215 289.24 57.8044C286.49 56.24 284.286 54.0593 282.627 51.2622C281.015 48.4178 280.209 45.1704 280.209 41.52C280.209 37.8222 281.015 34.5748 282.627 31.7778C284.286 28.9333 286.49 26.7526 289.24 25.2356C292.037 23.6711 295.142 22.8889 298.556 22.8889C303.533 22.8889 307.35 24.5007 310.004 27.7244V23.5289H321.311V55.1733ZM300.902 49.84C303.415 49.84 305.477 49.0815 307.089 47.5644C308.701 46 309.507 43.9852 309.507 41.52C309.507 39.0074 308.701 36.9926 307.089 35.4756C305.524 33.9111 303.462 33.1289 300.902 33.1289C298.437 33.1289 296.399 33.9111 294.787 35.4756C293.175 36.9926 292.369 39.0074 292.369 41.52C292.369 43.9852 293.175 46 294.787 47.5644C296.399 49.0815 298.437 49.84 300.902 49.84ZM351.943 22.8889C356.494 22.8889 360.168 24.3348 362.965 27.2267C365.762 30.0711 367.16 34.3378 367.16 40.0267V62H355.285V42.0178C355.285 36.4711 353.08 33.6978 348.671 33.6978C346.348 33.6978 344.476 34.5037 343.054 36.1156C341.631 37.68 340.92 40.0504 340.92 43.2267V62H328.974V23.5289H340.351V27.2978C341.774 25.8756 343.48 24.7852 345.471 24.0267C347.463 23.2681 349.62 22.8889 351.943 22.8889ZM20.1244 137.924C16.3793 137.924 12.7289 137.427 9.17333 136.431C5.61778 135.388 2.74963 134.037 0.568889 132.378L4.69333 122.564C6.77926 124.081 9.22074 125.29 12.0178 126.191C14.8148 127.092 17.5644 127.542 20.2667 127.542C23.1111 127.542 25.197 127.139 26.5244 126.333C27.8993 125.527 28.5867 124.437 28.5867 123.062C28.5867 121.593 27.8044 120.502 26.24 119.791C24.723 119.033 22.3052 118.274 18.9867 117.516C15.2889 116.615 12.2785 115.714 9.95556 114.813C7.68 113.865 5.68889 112.396 3.98222 110.404C2.27556 108.366 1.42222 105.64 1.42222 102.227C1.42222 99.24 2.18074 96.5378 3.69778 94.12C5.26222 91.7022 7.58519 89.8059 10.6667 88.4311C13.7481 87.0089 17.517 86.2978 21.9733 86.2978C25.1022 86.2978 28.1126 86.677 31.0044 87.4356C33.9437 88.1467 36.5274 89.2133 38.7556 90.6356L35.0578 100.52C30.6489 97.96 26.24 96.68 21.8311 96.68C19.0341 96.68 16.9719 97.1304 15.6444 98.0311C14.3644 98.9319 13.7244 100.093 13.7244 101.516C13.7244 102.985 14.483 104.076 16 104.787C17.517 105.498 19.9348 106.233 23.2533 106.991C26.9037 107.844 29.8904 108.745 32.2133 109.693C34.5837 110.594 36.6222 112.04 38.3289 114.031C40.0356 116.022 40.8889 118.701 40.8889 122.067C40.8889 125.006 40.1067 127.684 38.5422 130.102C36.9778 132.473 34.6311 134.369 31.5022 135.791C28.3733 137.213 24.5807 137.924 20.1244 137.924ZM67.2681 97.8889C70.6814 97.8889 73.7629 98.7185 76.5125 100.378C79.3095 101.99 81.4903 104.289 83.0547 107.276C84.6666 110.262 85.4725 113.747 85.4725 117.729C85.4725 121.711 84.6666 125.219 83.0547 128.253C81.4903 131.24 79.3095 133.563 76.5125 135.222C73.7629 136.834 70.6814 137.64 67.2681 137.64C62.954 137.64 59.5169 136.384 56.9569 133.871V150.796H45.0103V98.5289H56.3881V102.013C58.9481 99.2637 62.5747 97.8889 67.2681 97.8889ZM65.1347 127.4C67.5525 127.4 69.5199 126.547 71.0369 124.84C72.6014 123.086 73.3836 120.716 73.3836 117.729C73.3836 114.79 72.6014 112.467 71.0369 110.76C69.5199 109.006 67.5525 108.129 65.1347 108.129C62.7169 108.129 60.7258 109.006 59.1614 110.76C57.5969 112.467 56.8147 114.79 56.8147 117.729C56.8147 120.716 57.5732 123.086 59.0903 124.84C60.6547 126.547 62.6695 127.4 65.1347 127.4ZM108.439 137.64C104.504 137.64 100.972 136.81 97.8433 135.151C94.7619 133.444 92.3441 131.074 90.59 128.04C88.8359 125.006 87.9589 121.593 87.9589 117.8C87.9589 113.96 88.8359 110.547 90.59 107.56C92.3441 104.526 94.7619 102.156 97.8433 100.449C100.972 98.7422 104.504 97.8889 108.439 97.8889C112.326 97.8889 115.811 98.7422 118.892 100.449C122.021 102.156 124.463 104.526 126.217 107.56C127.971 110.547 128.848 113.96 128.848 117.8C128.848 121.593 127.971 125.006 126.217 128.04C124.463 131.074 122.021 133.444 118.892 135.151C115.811 136.81 112.326 137.64 108.439 137.64ZM108.439 127.4C110.857 127.4 112.848 126.547 114.412 124.84C115.977 123.086 116.759 120.739 116.759 117.8C116.759 114.813 115.977 112.467 114.412 110.76C112.895 109.006 110.904 108.129 108.439 108.129C106.021 108.129 104.03 109.006 102.466 110.76C100.901 112.467 100.119 114.813 100.119 117.8C100.119 120.739 100.901 123.086 102.466 124.84C104.03 126.547 106.021 127.4 108.439 127.4ZM145.138 103.009C147.793 99.5956 151.917 97.8889 157.511 97.8889V109.409C156.089 109.314 155.188 109.267 154.809 109.267C151.965 109.267 149.737 110.096 148.125 111.756C146.513 113.367 145.707 115.856 145.707 119.222V137H133.76V98.5289H145.138V103.009ZM189.427 135.222C188.337 136.028 187.009 136.621 185.445 137C183.928 137.427 182.292 137.64 180.538 137.64C175.987 137.64 172.455 136.431 169.943 134.013C167.478 131.548 166.245 127.945 166.245 123.204V109.124H160.841V99.5244H166.245V89.9956H178.192V99.5244H186.796V109.124H178.192V123.062C178.192 124.579 178.547 125.741 179.258 126.547C179.969 127.353 180.965 127.756 182.245 127.756C183.809 127.756 185.161 127.305 186.298 126.404L189.427 135.222ZM204.694 137.64C201.707 137.64 198.744 137.261 195.805 136.502C192.866 135.744 190.495 134.796 188.694 133.658L192.534 124.698C194.241 125.788 196.232 126.665 198.507 127.329C200.83 127.945 203.058 128.253 205.192 128.253C209.126 128.253 211.094 127.305 211.094 125.409C211.094 124.508 210.549 123.892 209.458 123.56C208.415 123.181 206.709 122.825 204.338 122.493C201.304 122.067 198.792 121.545 196.801 120.929C194.809 120.313 193.079 119.199 191.609 117.587C190.14 115.975 189.405 113.676 189.405 110.689C189.405 108.176 190.116 105.948 191.538 104.004C192.961 102.061 194.975 100.567 197.583 99.5244C200.238 98.4341 203.366 97.8889 206.969 97.8889C209.529 97.8889 212.113 98.197 214.721 98.8133C217.328 99.3822 219.532 100.164 221.334 101.16L217.352 110.049C214.223 108.2 210.762 107.276 206.969 107.276C204.884 107.276 203.319 107.56 202.276 108.129C201.281 108.65 200.783 109.338 200.783 110.191C200.783 111.139 201.328 111.827 202.418 112.253C203.556 112.633 205.358 113.012 207.823 113.391C210.857 113.865 213.346 114.41 215.289 115.027C217.233 115.596 218.916 116.686 220.338 118.298C221.808 119.91 222.543 122.161 222.543 125.053C222.543 127.519 221.832 129.699 220.409 131.596C218.987 133.492 216.925 134.985 214.223 136.076C211.521 137.119 208.344 137.64 204.694 137.64ZM253.739 87.2222V137H241.366V87.2222H253.739ZM298.188 137H286.811V133.516C284.251 136.265 280.695 137.64 276.144 137.64C272.683 137.64 269.554 136.834 266.757 135.222C263.96 133.563 261.756 131.24 260.144 128.253C258.532 125.267 257.726 121.782 257.726 117.8C257.726 113.818 258.532 110.333 260.144 107.347C261.756 104.313 263.936 101.99 266.686 100.378C269.483 98.7185 272.636 97.8889 276.144 97.8889C280.411 97.8889 283.8 99.1452 286.313 101.658V84.2356H298.188V137ZM278.277 127.4C280.648 127.4 282.615 126.547 284.179 124.84C285.744 123.086 286.526 120.739 286.526 117.8C286.526 114.813 285.744 112.467 284.179 110.76C282.615 109.006 280.648 108.129 278.277 108.129C275.812 108.129 273.774 109.006 272.162 110.76C270.597 112.467 269.815 114.813 269.815 117.8C269.815 120.739 270.597 123.086 272.162 124.84C273.774 126.547 275.812 127.4 278.277 127.4ZM342.053 121.356H315.173C315.694 123.347 316.785 124.911 318.444 126.049C320.103 127.139 322.189 127.684 324.702 127.684C326.503 127.684 328.068 127.424 329.395 126.902C330.77 126.333 332.097 125.456 333.377 124.271L339.635 131.453C336.174 135.578 331.078 137.64 324.346 137.64C320.127 137.64 316.405 136.787 313.182 135.08C309.958 133.373 307.469 131.027 305.715 128.04C303.961 125.006 303.084 121.593 303.084 117.8C303.084 114.007 303.937 110.594 305.644 107.56C307.398 104.526 309.792 102.156 312.826 100.449C315.86 98.7422 319.25 97.8889 322.995 97.8889C326.645 97.8889 329.916 98.6948 332.808 100.307C335.748 101.919 338.047 104.265 339.706 107.347C341.413 110.381 342.266 113.936 342.266 118.013L342.053 121.356ZM323.066 107.276C320.933 107.276 319.131 107.892 317.662 109.124C316.239 110.31 315.339 111.993 314.959 114.173H331.031C330.651 112.04 329.751 110.357 328.328 109.124C326.954 107.892 325.199 107.276 323.066 107.276ZM370.38 97.8889C374.931 97.8889 378.605 99.3348 381.402 102.227C384.199 105.071 385.598 109.338 385.598 115.027V137H373.722V117.018C373.722 111.471 371.518 108.698 367.109 108.698C364.786 108.698 362.913 109.504 361.491 111.116C360.069 112.68 359.358 115.05 359.358 118.227V137H347.411V98.5289H358.789V102.298C360.211 100.876 361.918 99.7852 363.909 99.0267C365.9 98.2681 368.057 97.8889 370.38 97.8889ZM417.552 135.222C416.462 136.028 415.134 136.621 413.57 137C412.053 137.427 410.417 137.64 408.663 137.64C404.112 137.64 400.58 136.431 398.068 134.013C395.603 131.548 394.37 127.945 394.37 123.204V109.124H388.966V99.5244H394.37V89.9956H406.317V99.5244H414.921V109.124H406.317V123.062C406.317 124.579 406.672 125.741 407.383 126.547C408.094 127.353 409.09 127.756 410.37 127.756C411.934 127.756 413.286 127.305 414.423 126.404L417.552 135.222ZM427.43 93.8356C425.249 93.8356 423.471 93.1956 422.096 91.9156C420.769 90.6356 420.105 89.0237 420.105 87.08C420.105 85.1363 420.769 83.5244 422.096 82.2444C423.471 80.917 425.249 80.2533 427.43 80.2533C429.563 80.2533 431.293 80.8696 432.621 82.1022C433.996 83.3348 434.683 84.8993 434.683 86.7956C434.683 88.8815 434.019 90.5881 432.692 91.9156C431.365 93.1956 429.61 93.8356 427.43 93.8356ZM433.332 98.5289V137H421.385V98.5289H433.332ZM465.427 135.222C464.337 136.028 463.009 136.621 461.445 137C459.928 137.427 458.292 137.64 456.538 137.64C451.987 137.64 448.455 136.431 445.943 134.013C443.478 131.548 442.245 127.945 442.245 123.204V109.124H436.841V99.5244H442.245V89.9956H454.192V99.5244H462.796V109.124H454.192V123.062C454.192 124.579 454.547 125.741 455.258 126.547C455.969 127.353 456.965 127.756 458.245 127.756C459.809 127.756 461.161 127.305 462.298 126.404L465.427 135.222ZM492.173 138.849C490.419 143.495 488.262 146.742 485.702 148.591C483.142 150.487 480.013 151.436 476.316 151.436C474.419 151.436 472.499 151.104 470.556 150.44C468.612 149.824 467.071 148.994 465.933 147.951L470.129 139.062C470.887 139.773 471.812 140.319 472.902 140.698C474.04 141.124 475.13 141.338 476.173 141.338C477.027 141.338 477.714 141.267 478.236 141.124C478.757 140.982 479.279 140.627 479.8 140.058C480.321 139.489 480.843 138.588 481.364 137.356L465.578 98.5289H477.88L487.338 123.133L496.867 98.5289H508.316L492.173 138.849Z" fill="white"/>
<path d="M550.862 85.6533L546.951 92.1244L539.413 87.6444L539.556 95.8933H532.089L532.231 87.5022L524.622 92.1244L520.782 85.6533L528.32 81.6L520.782 77.4756L524.622 71.0044L532.231 75.6267L532.089 67.2356H539.556L539.413 75.6267L546.951 71.0044L550.862 77.4756L543.396 81.6L550.862 85.6533Z" fill="white"/>
</svg>
